<?xml version="1.0" standalone="no"?>
<!DOCTYPE svg PUBLIC "-//W3C//DTD SVG 20010904//EN"
 "http://www.w3.org/TR/2001/REC-SVG-20010904/DTD/svg10.dtd">
<svg version="1.0" xmlns="http://www.w3.org/2000/svg"
 width="500.000000pt" height="500.000000pt" viewBox="0 0 500.000000 500.000000"
 preserveAspectRatio="xMidYMid meet">

<g transform="translate(0.000000,500.000000) scale(0.100000,-0.100000)"
fill="#000000" stroke="none">
<path d="M299 4986 c-118 -33 -208 -110 -262 -224 l-32 -67 0 -2195 0 -2195
32 -67 c55 -116 144 -191 267 -224 76 -20 4316 -20 4392 0 123 33 212 108 267
224 l32 67 0 2195 0 2195 -32 67 c-55 116 -144 191 -267 224 -73 20 -4326 19
-4397 0z m1043 -1776 c44 -13 93 -52 113 -91 27 -51 21 -59 -45 -59 -44 0 -60
4 -60 13 0 26 -39 50 -87 54 -64 5 -98 -13 -98 -52 0 -37 22 -49 131 -71 147
-30 199 -76 191 -167 -5 -61 -30 -95 -93 -127 -41 -21 -63 -25 -139 -25 -81 0
-95 3 -138 28 -35 21 -54 41 -68 70 -31 70 -28 77 41 77 51 0 60 -3 60 -18 0
-55 108 -90 183 -59 30 13 37 21 37 44 0 51 -18 62 -135 88 -100 22 -150 47
-175 88 -51 83 -3 173 110 208 37 11 130 10 172 -1z m608 -13 c76 -40 84 -68
88 -304 l4 -203 -61 0 -60 0 -3 196 -3 196 -28 24 c-32 27 -72 31 -122 10 -58
-24 -65 -52 -65 -251 l0 -175 -60 0 -60 0 0 260 0 260 55 0 55 0 0 -37 0 -37
28 26 c67 63 155 76 232 35z m557 -5 c68 -35 77 -62 83 -252 5 -162 5 -165 28
-168 18 -3 22 -10 22 -42 0 -31 -4 -39 -22 -44 -51 -13 -89 -6 -117 22 l-27
27 -43 -24 c-51 -28 -152 -39 -203 -22 -19 6 -49 27 -68 46 -27 28 -34 44 -38
87 -7 99 48 147 193 167 124 18 135 21 151 46 43 66 -65 121 -161 81 -22 -10
-37 -24 -41 -40 -6 -24 -10 -26 -65 -26 -69 0 -73 9 -36 74 23 42 67 73 120
87 58 15 178 4 224 -19z m554 16 c97 -29 161 -128 162 -252 2 -166 -88 -276
-224 -276 -52 0 -105 18 -139 46 l-30 26 0 -131 0 -131 -60 0 -60 0 0 360 0
360 55 0 55 0 0 -32 0 -31 23 21 c51 48 138 64 218 40z m779 -728 l0 -80 50 0
50 0 0 -45 0 -45 -50 0 -50 0 0 -151 c0 -84 5 -159 10 -170 8 -14 21 -19 50
-19 l40 0 0 -45 0 -45 -60 0 c-71 0 -123 19 -142 52 -9 16 -14 78 -16 201 l-4
177 -39 0 -39 0 0 45 0 45 40 0 40 0 0 73 c0 41 3 77 7 80 3 4 30 7 60 7 l53
0 0 -80z m-2498 -80 c44 -13 93 -52 113 -91 27 -51 21 -59 -45 -59 -44 0 -60
4 -60 13 0 26 -39 50 -87 54 -64 5 -98 -13 -98 -52 0 -37 22 -49 131 -71 147
-30 199 -76 191 -167 -5 -61 -30 -95 -93 -127 -41 -21 -63 -25 -139 -25 -81 0
-95 3 -138 28 -35 21 -54 41 -68 70 -31 70 -28 77 41 77 51 0 60 -3 60 -18 0
-55 108 -90 183 -59 30 13 37 21 37 44 0 51 -18 62 -135 88 -100 22 -150 47
-175 88 -51 83 -3 173 110 208 37 11 130 10 172 -1z m589 -2 c97 -29 161 -128
162 -252 2 -166 -88 -276 -224 -276 -52 0 -105 18 -139 46 l-30 26 0 -131 0
-131 -60 0 -60 0 0 360 0 360 55 0 55 0 0 -32 0 -31 23 21 c51 48 138 64 218
40z m559 -43 l0 -55 -41 0 c-53 0 -96 -26 -120 -72 -16 -32 -19 -59 -19 -193
l0 -155 -60 0 -60 0 0 260 0 260 55 0 55 0 0 -47 0 -48 20 32 c24 40 83 72
133 73 l37 0 0 -55z m397 27 c176 -91 177 -393 0 -484 -56 -28 -149 -35 -219
-14 -69 20 -140 91 -159 157 -18 67 -14 169 9 220 26 58 89 117 143 135 62 20
173 13 226 -14z m353 -167 c0 -113 4 -193 11 -208 21 -46 81 -59 145 -32 56
23 64 56 64 255 l0 170 60 0 60 0 0 -260 0 -260 -60 0 -60 0 0 37 c0 37 0 37
-16 15 -42 -61 -155 -80 -234 -39 -78 39 -85 60 -88 300 l-3 207 60 0 61 0 0
-185z"/>
<path d="M2457 2944 c-4 -4 -44 -13 -88 -20 -102 -16 -129 -33 -129 -78 0 -43
27 -67 82 -73 53 -6 110 16 133 50 16 25 19 138 2 121z"/>
<path d="M2900 3112 c-52 -26 -75 -73 -75 -157 0 -121 59 -191 152 -182 79 8
119 54 130 147 17 149 -92 250 -207 192z"/>
<path d="M1770 2302 c-52 -26 -75 -73 -75 -157 0 -121 59 -191 152 -182 79 8
119 54 130 147 17 149 -92 250 -207 192z"/>
<path d="M2696 2305 c-97 -52 -115 -218 -33 -305 55 -57 154 -49 204 17 24 31
28 47 31 112 3 84 -13 129 -60 164 -35 26 -105 32 -142 12z"/>
</g>
</svg>
